<svg xmlns="http://www.w3.org/2000/svg" viewBox="0 0 400 200" fill="none">
  <defs>
    <linearGradient id="bg1" x1="0%" y1="0%" x2="100%" y2="100%">
      <stop offset="0%" style="stop-color:#3b82f6"/>
      <stop offset="100%" style="stop-color:#4f46e5"/>
    </linearGradient>
  </defs>
  <rect width="400" height="200" fill="url(#bg1)"/>
  <circle cx="340" cy="40" r="60" fill="white" opacity="0.06"/>
  <circle cx="60" cy="170" r="40" fill="white" opacity="0.05"/>
  <!-- Resume document -->
  <rect x="140" y="30" width="120" height="140" rx="8" fill="white" opacity="0.95"/>
  <circle cx="200" cy="60" r="14" fill="#e0e7ff"/>
  <rect x="165" y="82" width="70" height="6" rx="3" fill="#c7d2fe"/>
  <rect x="160" y="96" width="80" height="4" rx="2" fill="#e0e7ff"/>
  <rect x="160" y="106" width="80" height="4" rx="2" fill="#e0e7ff"/>
  <rect x="160" y="116" width="60" height="4" rx="2" fill="#e0e7ff"/>
  <rect x="160" y="130" width="80" height="4" rx="2" fill="#e0e7ff"/>
  <rect x="160" y="140" width="50" height="4" rx="2" fill="#e0e7ff"/>
  <!-- Checkmark badge -->
  <circle cx="275" cy="55" r="20" fill="#22c55e" opacity="0.9"/>
  <path d="M265 55 L272 62 L285 49" stroke="white" stroke-width="3" stroke-linecap="round" stroke-linejoin="round" fill="none"/>
  <!-- Star -->
  <text x="115" y="75" font-size="24" opacity="0.8">⭐</text>
</svg>