<svg xmlns="http://www.w3.org/2000/svg" viewBox="0 0 400 200" fill="none">
  <defs>
    <linearGradient id="bg6" x1="0%" y1="0%" x2="100%" y2="100%">
      <stop offset="0%" style="stop-color:#06b6d4"/>
      <stop offset="100%" style="stop-color:#0284c7"/>
    </linearGradient>
  </defs>
  <rect width="400" height="200" fill="url(#bg6)"/>
  <circle cx="50" cy="40" r="50" fill="white" opacity="0.06"/>
  <circle cx="360" cy="170" r="55" fill="white" opacity="0.05"/>
  <!-- People circles -->
  <circle cx="155" cy="80" r="20" fill="white" opacity="0.2"/>
  <circle cx="200" cy="70" r="22" fill="white" opacity="0.25"/>
  <circle cx="245" cy="80" r="20" fill="white" opacity="0.2"/>
  <!-- Connection lines -->
  <line x1="170" y1="85" x2="185" y2="78" stroke="white" stroke-width="1.5" opacity="0.3"/>
  <line x1="215" y1="78" x2="230" y2="85" stroke="white" stroke-width="1.5" opacity="0.3"/>
  <line x1="165" y1="95" x2="235" y2="95" stroke="white" stroke-width="1" opacity="0.2" stroke-dasharray="4 3"/>
  <!-- Chat bubbles -->
  <rect x="115" y="110" width="60" height="30" rx="8" fill="white" opacity="0.15"/>
  <rect x="225" y="110" width="60" height="30" rx="8" fill="white" opacity="0.15"/>
  <rect x="170" y="120" width="60" height="30" rx="8" fill="white" opacity="0.12"/>
  <!-- Small dots for activity -->
  <circle cx="135" cy="122" r="2" fill="white" opacity="0.5"/>
  <circle cx="145" cy="122" r="2" fill="white" opacity="0.5"/>
  <circle cx="155" cy="122" r="2" fill="white" opacity="0.5"/>
  <circle cx="245" cy="122" r="2" fill="white" opacity="0.5"/>
  <circle cx="255" cy="122" r="2" fill="white" opacity="0.5"/>
  <circle cx="265" cy="122" r="2" fill="white" opacity="0.5"/>
  <!-- Decorative -->
  <text x="310" y="70" font-size="24" opacity="0.7">🤝</text>
  <text x="75" y="130" font-size="22" opacity="0.7">👥</text>
</svg>